<svg version="1.1" id="Layer_1" xmlns="http://www.w3.org/2000/svg" xmlns:xlink="http://www.w3.org/1999/xlink" x="0px" y="0px"
	 width="100%" viewBox="0 0 167 165" enable-background="new 0 0 167 165" xml:space="preserve">
<path fill="#37353A" opacity="1.000000" stroke="none" 
	d="
M101.000000,166.000000 
	C67.333336,166.000000 34.166676,166.000000 1.000009,166.000000 
	C1.000006,111.000008 1.000006,56.000023 1.000003,1.000024 
	C56.666653,1.000016 112.333305,1.000016 167.999969,1.000008 
	C167.999969,55.999973 167.999969,110.999947 167.999985,165.999969 
	C145.833328,166.000000 123.666664,166.000000 101.000000,166.000000 
M71.204048,40.978821 
	C79.015358,40.676163 83.508087,35.688271 81.573013,29.467064 
	C80.167038,24.946892 75.474503,22.177843 71.035194,23.248730 
	C65.643028,24.549471 63.350002,29.069506 64.076302,36.292782 
	C57.019672,43.474148 49.963047,50.655518 41.992039,57.917892 
	C38.083004,57.917892 34.173965,57.917892 28.681726,57.917892 
	C30.132671,63.826359 30.081406,69.425972 32.784481,72.853294 
	C35.096859,75.785248 36.443542,78.347527 36.838066,81.767365 
	C38.554253,96.643593 40.247131,111.522507 41.973217,126.397583 
	C42.605957,131.850449 44.889778,133.967346 50.493359,133.979401 
	C72.803261,134.027359 95.113388,134.027863 117.423286,133.979767 
	C123.234581,133.967239 125.398308,131.854950 126.074066,125.982811 
	C127.786079,111.106049 129.468796,96.225822 131.236038,81.355637 
	C131.486084,79.251488 131.488525,75.976318 132.718094,75.316612 
	C140.344238,71.224884 137.476196,64.580528 137.943283,57.834785 
	C133.324814,57.834785 129.209839,57.834785 124.832619,57.230614 
	C117.544296,49.967834 110.255974,42.705055 102.926643,34.661919 
	C102.942741,33.666965 103.052231,32.663197 102.959297,31.678532 
	C102.474945,26.546320 98.596436,22.912117 93.795280,23.031668 
	C88.971741,23.151777 84.988480,27.268509 85.031952,32.088623 
	C85.075409,36.907101 88.813126,40.643478 93.962334,40.966923 
	C95.117760,41.039497 96.282059,40.970936 97.916252,41.504139 
	C103.245613,46.947289 108.574974,52.390442 112.981636,57.911068 
	C93.353325,57.885513 73.725021,57.859959 54.377106,57.259457 
	C59.727623,51.820076 65.078140,46.380695 71.204048,40.978821 
z"/>
<path fill="#98CB33" opacity="1.000000" stroke="none" 
	d="
M125.094849,57.834785 
	C129.209839,57.834785 133.324814,57.834785 137.943283,57.834785 
	C137.476196,64.580528 140.344238,71.224884 132.718094,75.316612 
	C131.488525,75.976318 131.486084,79.251488 131.236038,81.355637 
	C129.468796,96.225822 127.786079,111.106049 126.074066,125.982811 
	C125.398308,131.854950 123.234581,133.967239 117.423286,133.979767 
	C95.113388,134.027863 72.803261,134.027359 50.493359,133.979401 
	C44.889778,133.967346 42.605957,131.850449 41.973217,126.397583 
	C40.247131,111.522507 38.554253,96.643593 36.838066,81.767365 
	C36.443542,78.347527 35.096859,75.785248 32.784481,72.853294 
	C30.081406,69.425972 30.132671,63.826359 28.681726,57.917892 
	C34.173965,57.917892 38.083004,57.917892 42.913177,57.928589 
	C47.255116,57.904324 50.675911,57.869362 54.096710,57.834404 
	C73.725021,57.859959 93.353325,57.885513 113.906174,57.930862 
	C118.252098,57.912033 121.673470,57.873409 125.094849,57.834785 
M60.416901,124.289993 
	C64.454414,123.726128 65.995995,121.165359 65.993011,117.348183 
	C65.986275,108.721848 66.006508,100.095467 65.980789,91.469208 
	C65.969345,87.630623 64.293228,84.897484 60.229069,84.781181 
	C55.895462,84.657166 54.032272,87.384079 54.018829,91.489273 
	C53.990582,100.115517 54.014706,108.741920 54.006054,117.368248 
	C54.002224,121.189377 55.536316,123.749275 60.416901,124.289993 
M85.231537,124.179749 
	C88.683884,123.308350 89.998451,120.917953 89.994019,117.548256 
	C89.982658,108.920906 89.986343,100.293533 89.994781,91.666176 
	C89.998764,87.587128 88.312752,84.747063 83.957733,84.782990 
	C79.585075,84.819046 78.010620,87.770729 78.008881,91.790184 
	C78.005226,100.251640 78.003067,108.713097 78.009087,117.174553 
	C78.012138,121.458359 79.774796,124.174896 85.231537,124.179749 
M103.333916,122.013153 
	C105.726341,122.614899 108.614769,124.310799 110.373070,123.513733 
	C112.167084,122.700470 113.753464,119.480637 113.859848,117.239845 
	C114.260620,108.798035 113.996094,100.325737 114.033081,91.865082 
	C114.050713,87.830620 112.566734,85.016312 108.191429,84.744873 
	C104.377991,84.508293 102.123901,87.234558 102.049744,92.083557 
	C101.968582,97.391090 101.917732,102.703804 102.061958,108.008606 
	C102.182510,112.442604 102.603470,116.868446 103.333916,122.013153 
z"/>
<path fill="#D53637" opacity="1.000000" stroke="none" 
	d="
M97.442268,40.967350 
	C96.282059,40.970936 95.117760,41.039497 93.962334,40.966923 
	C88.813126,40.643478 85.075409,36.907101 85.031952,32.088623 
	C84.988480,27.268509 88.971741,23.151777 93.795280,23.031668 
	C98.596436,22.912117 102.474945,26.546320 102.959297,31.678532 
	C103.052231,32.663197 102.942741,33.666965 102.610962,35.190903 
	C100.677612,37.469040 99.059937,39.218197 97.442268,40.967350 
z"/>
<path fill="#D53737" opacity="1.000000" stroke="none" 
	d="
M64.661736,35.812168 
	C63.350002,29.069506 65.643028,24.549471 71.035194,23.248730 
	C75.474503,22.177843 80.167038,24.946892 81.573013,29.467064 
	C83.508087,35.688271 79.015358,40.676163 70.564011,40.727394 
	C68.169891,38.921368 66.415810,37.366768 64.661736,35.812168 
z"/>
<path fill="#FCF2DC" opacity="1.000000" stroke="none" 
	d="
M97.679260,41.235744 
	C99.059937,39.218197 100.677612,37.469040 102.631470,35.581081 
	C110.255974,42.705055 117.544296,49.967834 124.963730,57.532700 
	C121.673470,57.873409 118.252098,57.912033 114.367523,57.892128 
	C108.574974,52.390442 103.245613,46.947289 97.679260,41.235744 
z"/>
<path fill="#E2D1B3" opacity="1.000000" stroke="none" 
	d="
M64.369019,36.052475 
	C66.415810,37.366768 68.169891,38.921368 70.176315,40.708641 
	C65.078140,46.380695 59.727623,51.820076 54.236908,57.546928 
	C50.675911,57.869362 47.255116,57.904324 43.370369,57.888084 
	C49.963047,50.655518 57.019672,43.474148 64.369019,36.052475 
z"/>
<path fill="#38363A" opacity="1.000000" stroke="none" 
	d="
M60.001900,124.290802 
	C55.536316,123.749275 54.002224,121.189377 54.006054,117.368248 
	C54.014706,108.741920 53.990582,100.115517 54.018829,91.489273 
	C54.032272,87.384079 55.895462,84.657166 60.229069,84.781181 
	C64.293228,84.897484 65.969345,87.630623 65.980789,91.469208 
	C66.006508,100.095467 65.986275,108.721848 65.993011,117.348183 
	C65.995995,121.165359 64.454414,123.726128 60.001900,124.290802 
z"/>
<path fill="#38363A" opacity="1.000000" stroke="none" 
	d="
M84.823761,124.235672 
	C79.774796,124.174896 78.012138,121.458359 78.009087,117.174553 
	C78.003067,108.713097 78.005226,100.251640 78.008881,91.790184 
	C78.010620,87.770729 79.585075,84.819046 83.957733,84.782990 
	C88.312752,84.747063 89.998764,87.587128 89.994781,91.666176 
	C89.986343,100.293533 89.982658,108.920906 89.994019,117.548256 
	C89.998451,120.917953 88.683884,123.308350 84.823761,124.235672 
z"/>
<path fill="#38363A" opacity="1.000000" stroke="none" 
	d="
M103.112656,121.655525 
	C102.603470,116.868446 102.182510,112.442604 102.061958,108.008606 
	C101.917732,102.703804 101.968582,97.391090 102.049744,92.083557 
	C102.123901,87.234558 104.377991,84.508293 108.191429,84.744873 
	C112.566734,85.016312 114.050713,87.830620 114.033081,91.865082 
	C113.996094,100.325737 114.260620,108.798035 113.859848,117.239845 
	C113.753464,119.480637 112.167084,122.700470 110.373070,123.513733 
	C108.614769,124.310799 105.726341,122.614899 103.112656,121.655525 
z"/>
</svg>